# xmcd CD database file
#
# Track frame offsets:
#	150
#	23653
#	36316
#	48766
#	82645
#	91731
#	111397
#	121701
#	147094
#	158461
#	175997
#	186931
#	198776
#
# Disc length: 2864 seconds
#
# Revision: 0
# Processed by: cddbd v1.5.1PL0 Copyright (c) Steve Scherf et al.
# Submitted via: CDex 1.51
#
DISCID=920b2e0d
DTITLE=DUKE ELLINGTON - The Duke
DYEAR=1900
DGENRE=Jazz
TTITLE0=Take The A-Train
TTITLE1=Caravan
TTITLE2=Come Rain Or Come Shine
TTITLE3=Satin Doll
TTITLE4=It Don't Mean A Thing
TTITLE5=Mood Indigo
TTITLE6=Ring Dem Bells
TTITLE7=One O'Clock Jump
TTITLE8=How High The Moon
TTITLE9=Just You, Just Me
TTITLE10=Rose Of The Rio Grande
TTITLE11=I Got It Bad And That Ain't Good
TTITLE12=Passion Flower
EXTD=
EXTT0=
EXTT1=
EXTT2=
EXTT3=
EXTT4=
EXTT5=
EXTT6=
EXTT7=
EXTT8=
EXTT9=
EXTT10=
EXTT11=
EXTT12=
PLAYORDER=
